#!OML:ASF X:\für Bonn\!DataBase\2005_08_10_Bjorn_Final\c3d\bjorn.ASF
:FULLY-SPECIFIED
:DEGREES
247
root 1.64694 18.7603 2.94615 -184.138 -5.13377 -203.164
lowerback 8.6981 -1.84485 11.4107
upperback 15.3041 -5.09535 -1.97477
thorax 11.1059 -2.26904 -8.7846
lowerneck -2.61706 13.1452 1.90689
upperneck 5.72818 18.7212 -22.4084
head 4.54919 8.14114 -6.06839
rclavicle -9.54166e-015 6.36111e-015
rhumerus -40.3171 -26.7079 -68.6686
rradius 33.6503
rwrist -16.6287
rhand -11.9025 9.67107
rfingers 7.12502
rthumb 14.1509 -19.827
lclavicle -9.54166e-015 6.36111e-015
lhumerus -17.4411 5.39477 67.158
lradius 59.4952
lwrist -32.293
lhand -45.6853 -29.0022
lfingers 7.12502
lthumb -18.443 0.143513
rfemur -13.3165 2.16519 -3.94681
rtibia 44.4316
rfoot -24.8587 2.85627
rtoes -4.4814
lfemur -18.6988 -5.14095 -15.4172
ltibia 57.0855
lfoot -5.49327 0.816372
ltoes -15.117
248
root 1.65529 18.7658 2.97456 -183.994 -4.82586 -202.793
lowerback 8.82755 -1.70957 11.4554
upperback 15.2853 -4.88869 -1.99325
thorax 11.0557 -2.16359 -8.82479
lowerneck -2.64567 13.1502 1.8478
upperneck 5.7038 18.7227 -22.4107
head 4.5418 8.14125 -6.05878
rclavicle 7.95139e-015 8.5875e-014
rhumerus -38.8058 -25.2342 -70.711
rradius 34.3741
rwrist -15.5543
rhand -11.89 9.7106
rfingers 7.12502
rthumb 14.163 -19.7866
lclavicle 7.95139e-015 8.5875e-014
lhumerus -18.0539 4.78555 67.6757
lradius 58.5845
lwrist -32.4345
lhand -45.5728 -29.2108
lfingers 7.12502
lthumb -18.3347 -0.0548598
rfemur -13.7417 2.23376 -3.50771
rtibia 44.4568
rfoot -24.7455 2.96363
rtoes -3.99733
lfemur -18.8142 -4.95568 -16.3035
ltibia 56.7546
lfoot -6.56601 0.686734
ltoes -15.3265
249
root 1.66341 18.7696 3.00252 -183.853 -4.52764 -202.435
lowerback 8.95567 -1.58183 11.4745
upperback 15.269 -4.69514 -2.00859
thorax 11.0069 -2.06822 -8.84743
lowerneck -2.65242 13.1525 1.74925
upperneck 5.65562 18.7131 -22.4071
head 4.51762 8.13824 -6.04483
rclavicle -3.65764e-014 -9.22361e-014
rhumerus -37.385 -23.7476 -72.5558
rradius 35.1397
rwrist -14.459
rhand -11.8257 9.75454
rfingers 7.12502
rthumb 14.2249 -19.7383
lclavicle -3.65764e-014 -9.22361e-014
lhumerus -18.663 4.23177 68.1991
lradius 57.6862
lwrist -32.7262
lhand -45.4971 -29.2452
lfingers 7.12502
lthumb -18.262 -0.0824958
rfemur -14.1571 2.28549 -3.08567
rtibia 44.4878
rfoot -24.6307 3.1051
rtoes -3.55445
lfemur -18.9564 -4.74804 -17.1974
ltibia 56.431
lfoot -7.65244 0.479318
ltoes -15.7375
250
root 1.67293 18.7745 3.02956 -183.708 -4.23795 -202.051
lowerback 9.08417 -1.45619 11.5149
upperback 15.2416 -4.49933 -2.02576
thorax 10.945 -1.96912 -8.88357
lowerneck -2.60513 13.1443 1.67585
upperneck 5.565 18.6775 -22.4016
head 4.46994 8.13179 -6.04076
rclavicle 1.11319e-014 -9.54166e-015
rhumerus -36.0968 -22.2513 -74.2627
rradius 35.9613
rwrist -13.2966
rhand -11.8032 10.0051
rfingers 7.12502
rthumb 14.2466 -19.4862
lclavicle 1.11319e-014 -9.54166e-015
lhumerus -19.2585 3.64943 68.7029
lradius 56.7655
lwrist -33.0462
lhand -45.4056 -29.3116
lfingers 7.12502
lthumb -18.1739 -0.140586
rfemur -14.5621 2.33066 -2.62832
rtibia 44.5177
rfoot -24.5409 3.21027
rtoes -3.22836
lfemur -19.1358 -4.56852 -18.0468
ltibia 56.1107
lfoot -8.81161 0.233442
ltoes -16.1388
251
root 1.68215 18.7783 3.05525 -183.556 -3.95167 -201.681
lowerback 9.20079 -1.32445 11.5343
upperback 15.2156 -4.29664 -2.04588
thorax 10.8935 -1.86758 -8.91289
lowerneck -2.55842 13.131 1.59033
upperneck 5.46769 18.6326 -22.3778
head 4.41609 8.12243 -6.03033
rclavicle 5.56597e-014 9.22361e-014
rhumerus -34.9155 -20.8537 -75.7757
rradius 36.8123
rwrist -12.0121
rhand -11.7708 10.6702
rfingers 7.12502
rthumb 14.2779 -18.8189
lclavicle 5.56597e-014 9.22361e-014
lhumerus -19.8258 3.06862 69.2187
lradius 55.8504
lwrist -33.3165
lhand -45.2234 -29.3531
lfingers 7.12502
lthumb -17.9986 -0.165917
rfemur -14.9679 2.34169 -2.19075
rtibia 44.5447
rfoot -24.4344 3.33582
rtoes -2.89334
lfemur -19.3357 -4.40559 -18.9004
ltibia 55.7859
lfoot -10.0233 -0.0556175
ltoes -16.8857
252
root 1.69253 18.7822 3.07912 -183.4 -3.6805 -201.311
lowerback 9.30781 -1.19075 11.5502
upperback 15.1865 -4.09049 -2.0664
thorax 10.8448 -1.76376 -8.94155
lowerneck -2.5163 13.1178 1.52487
upperneck 5.38835 18.5922 -22.3606
head 4.37171 8.11368 -6.02374
rclavicle 9.54166e-015 -2.8625e-014
rhumerus -33.8491 -19.5094 -77.1418
rradius 37.7098
rwrist -10.7407
rhand -11.7467 11.5086
rfingers 7.12502
rthumb 14.3011 -17.9789
lclavicle 9.54166e-015 -2.8625e-014
lhumerus -20.4016 2.46253 69.7395
lradius 54.9359
lwrist -33.6093
lhand -45.07 -29.3647
lfingers 7.12502
lthumb -17.851 -0.164016
rfemur -15.3556 2.35814 -1.74495
rtibia 44.5685
rfoot -24.352 3.45425
rtoes -2.54803
lfemur -19.5498 -4.24878 -19.7314
ltibia 55.4447
lfoot -11.1516 -0.407144
ltoes -17.2835
253
root 1.70428 18.7855 3.10032 -183.237 -3.43133 -200.946
lowerback 9.3709 -1.05332 11.5421
upperback 15.1717 -3.88872 -2.08956
thorax 10.8383 -1.66144 -8.96424
lowerneck -2.49515 13.0987 1.47445
upperneck 5.29729 18.5435 -22.3301
head 4.32642 8.10256 -6.01455
rclavicle -1.59028e-015 -1.90833e-014
rhumerus -32.8455 -18.2867 -78.3828
rradius 38.6387
rwrist -9.45222
rhand -11.6692 12.2872
rfingers 7.12502
rthumb 14.3758 -17.195
lclavicle -1.59028e-015 -1.90833e-014
lhumerus -20.947 1.86405 70.2645
lradius 54.0173
lwrist -33.9851
lhand -44.9343 -29.264
lfingers 7.12502
lthumb -17.7204 -0.0514207
rfemur -15.7219 2.3434 -1.30796
rtibia 44.5833
rfoot -24.275 3.59066
rtoes -2.18532
lfemur -19.7815 -4.07915 -20.5503
ltibia 55.0983
lfoot -12.2112 -0.791388
ltoes -17.379
